<mxfile host="app.diagrams.net" modified="2023-09-07T18:28:57.266Z" agent="Mozilla/5.0 (Windows NT 10.0; Win64; x64) AppleWebKit/537.36 (KHTML, like Gecko) Chrome/116.0.0.0 Safari/537.36" etag="FdPyHnLsspe7ISrQfaql" version="21.6.8" type="device">
  <diagram name="Page-1" id="_rk4IbMDB8vIoH3vDntG">
    <mxGraphModel dx="2514" dy="1274" grid="1" gridSize="10" guides="1" tooltips="1" connect="1" arrows="1" fold="1" page="1" pageScale="1" pageWidth="1100" pageHeight="2000" math="0" shadow="0">
      <root>
        <mxCell id="0" />
        <mxCell id="1" parent="0" />
        <mxCell id="SRF5zRr9VvHZBYwOSEQ1-5" style="edgeStyle=orthogonalEdgeStyle;rounded=0;orthogonalLoop=1;jettySize=auto;html=1;entryX=0.5;entryY=0;entryDx=0;entryDy=0;entryPerimeter=0;fontSize=12;fontStyle=1" edge="1" parent="1" source="SRF5zRr9VvHZBYwOSEQ1-2" target="SRF5zRr9VvHZBYwOSEQ1-4">
          <mxGeometry relative="1" as="geometry">
            <Array as="points" />
          </mxGeometry>
        </mxCell>
        <mxCell id="SRF5zRr9VvHZBYwOSEQ1-2" value="start" style="strokeWidth=2;html=1;shape=mxgraph.flowchart.terminator;whiteSpace=wrap;fontSize=12;fontStyle=1" vertex="1" parent="1">
          <mxGeometry x="260" y="20" width="100" height="60" as="geometry" />
        </mxCell>
        <mxCell id="SRF5zRr9VvHZBYwOSEQ1-12" value="" style="edgeStyle=orthogonalEdgeStyle;rounded=0;orthogonalLoop=1;jettySize=auto;html=1;fontSize=12;fontStyle=1" edge="1" parent="1" source="SRF5zRr9VvHZBYwOSEQ1-4" target="SRF5zRr9VvHZBYwOSEQ1-11">
          <mxGeometry relative="1" as="geometry" />
        </mxCell>
        <mxCell id="SRF5zRr9VvHZBYwOSEQ1-4" value="number 1 to 100" style="strokeWidth=2;html=1;shape=mxgraph.flowchart.decision;whiteSpace=wrap;fontSize=12;fontStyle=1" vertex="1" parent="1">
          <mxGeometry x="260" y="150" width="100" height="100" as="geometry" />
        </mxCell>
        <mxCell id="SRF5zRr9VvHZBYwOSEQ1-14" value="" style="edgeStyle=orthogonalEdgeStyle;rounded=0;orthogonalLoop=1;jettySize=auto;html=1;fontSize=12;fontStyle=1" edge="1" parent="1" source="SRF5zRr9VvHZBYwOSEQ1-11" target="SRF5zRr9VvHZBYwOSEQ1-13">
          <mxGeometry relative="1" as="geometry" />
        </mxCell>
        <mxCell id="SRF5zRr9VvHZBYwOSEQ1-38" value="Yes" style="edgeLabel;html=1;align=center;verticalAlign=middle;resizable=0;points=[];fontSize=12;fontStyle=1" vertex="1" connectable="0" parent="SRF5zRr9VvHZBYwOSEQ1-14">
          <mxGeometry x="-0.2167" y="3" relative="1" as="geometry">
            <mxPoint as="offset" />
          </mxGeometry>
        </mxCell>
        <mxCell id="SRF5zRr9VvHZBYwOSEQ1-21" style="edgeStyle=orthogonalEdgeStyle;rounded=0;orthogonalLoop=1;jettySize=auto;html=1;entryX=0;entryY=0.5;entryDx=0;entryDy=0;entryPerimeter=0;fontSize=12;fontStyle=1" edge="1" parent="1" source="SRF5zRr9VvHZBYwOSEQ1-11" target="SRF5zRr9VvHZBYwOSEQ1-19">
          <mxGeometry relative="1" as="geometry" />
        </mxCell>
        <mxCell id="SRF5zRr9VvHZBYwOSEQ1-37" value="No" style="edgeLabel;html=1;align=center;verticalAlign=middle;resizable=0;points=[];fontSize=12;fontStyle=1" vertex="1" connectable="0" parent="SRF5zRr9VvHZBYwOSEQ1-21">
          <mxGeometry x="0.04" y="1" relative="1" as="geometry">
            <mxPoint as="offset" />
          </mxGeometry>
        </mxCell>
        <mxCell id="SRF5zRr9VvHZBYwOSEQ1-11" value="number % 3&amp;nbsp;&lt;br style=&quot;font-size: 12px;&quot;&gt;== 0&amp;nbsp;" style="strokeWidth=2;html=1;shape=mxgraph.flowchart.decision;whiteSpace=wrap;fontSize=12;fontStyle=1" vertex="1" parent="1">
          <mxGeometry x="260" y="330" width="100" height="100" as="geometry" />
        </mxCell>
        <mxCell id="SRF5zRr9VvHZBYwOSEQ1-16" style="edgeStyle=orthogonalEdgeStyle;rounded=0;orthogonalLoop=1;jettySize=auto;html=1;entryX=0;entryY=0.5;entryDx=0;entryDy=0;fontSize=12;fontStyle=1" edge="1" parent="1" source="SRF5zRr9VvHZBYwOSEQ1-13" target="SRF5zRr9VvHZBYwOSEQ1-15">
          <mxGeometry relative="1" as="geometry" />
        </mxCell>
        <mxCell id="SRF5zRr9VvHZBYwOSEQ1-39" value="No" style="edgeLabel;html=1;align=center;verticalAlign=middle;resizable=0;points=[];fontSize=12;fontStyle=1" vertex="1" connectable="0" parent="SRF5zRr9VvHZBYwOSEQ1-16">
          <mxGeometry x="-0.2709" y="-2" relative="1" as="geometry">
            <mxPoint as="offset" />
          </mxGeometry>
        </mxCell>
        <mxCell id="SRF5zRr9VvHZBYwOSEQ1-18" style="edgeStyle=orthogonalEdgeStyle;rounded=0;orthogonalLoop=1;jettySize=auto;html=1;entryX=0.5;entryY=0;entryDx=0;entryDy=0;fontSize=12;fontStyle=1" edge="1" parent="1" source="SRF5zRr9VvHZBYwOSEQ1-13" target="SRF5zRr9VvHZBYwOSEQ1-17">
          <mxGeometry relative="1" as="geometry" />
        </mxCell>
        <mxCell id="SRF5zRr9VvHZBYwOSEQ1-40" value="Yes" style="edgeLabel;html=1;align=center;verticalAlign=middle;resizable=0;points=[];fontSize=12;fontStyle=1" vertex="1" connectable="0" parent="SRF5zRr9VvHZBYwOSEQ1-18">
          <mxGeometry x="-0.3417" y="2" relative="1" as="geometry">
            <mxPoint as="offset" />
          </mxGeometry>
        </mxCell>
        <mxCell id="SRF5zRr9VvHZBYwOSEQ1-13" value="number % 5 &lt;br style=&quot;font-size: 12px;&quot;&gt;== 0" style="strokeWidth=2;html=1;shape=mxgraph.flowchart.decision;whiteSpace=wrap;fontSize=12;fontStyle=1" vertex="1" parent="1">
          <mxGeometry x="260" y="510" width="100" height="100" as="geometry" />
        </mxCell>
        <mxCell id="SRF5zRr9VvHZBYwOSEQ1-28" style="edgeStyle=orthogonalEdgeStyle;rounded=0;orthogonalLoop=1;jettySize=auto;html=1;fontSize=12;fontStyle=1" edge="1" parent="1" source="SRF5zRr9VvHZBYwOSEQ1-15">
          <mxGeometry relative="1" as="geometry">
            <mxPoint x="310" y="790" as="targetPoint" />
            <Array as="points">
              <mxPoint x="500" y="790" />
            </Array>
          </mxGeometry>
        </mxCell>
        <mxCell id="SRF5zRr9VvHZBYwOSEQ1-15" value="output =&lt;br style=&quot;font-size: 12px;&quot;&gt;&quot;Fizz&quot;" style="shape=parallelogram;html=1;strokeWidth=2;perimeter=parallelogramPerimeter;whiteSpace=wrap;rounded=1;arcSize=12;size=0.23;fontSize=12;fontStyle=1" vertex="1" parent="1">
          <mxGeometry x="450" y="530" width="100" height="60" as="geometry" />
        </mxCell>
        <mxCell id="SRF5zRr9VvHZBYwOSEQ1-27" style="edgeStyle=orthogonalEdgeStyle;rounded=0;orthogonalLoop=1;jettySize=auto;html=1;entryX=0.5;entryY=0;entryDx=0;entryDy=0;entryPerimeter=0;fontSize=12;fontStyle=1" edge="1" parent="1" source="SRF5zRr9VvHZBYwOSEQ1-17" target="SRF5zRr9VvHZBYwOSEQ1-26">
          <mxGeometry relative="1" as="geometry" />
        </mxCell>
        <mxCell id="SRF5zRr9VvHZBYwOSEQ1-17" value="output =&lt;br style=&quot;font-size: 12px;&quot;&gt;&quot;FizzBuzz&quot;" style="shape=parallelogram;html=1;strokeWidth=2;perimeter=parallelogramPerimeter;whiteSpace=wrap;rounded=1;arcSize=12;size=0.23;fontSize=12;fontStyle=1" vertex="1" parent="1">
          <mxGeometry x="260" y="690" width="100" height="60" as="geometry" />
        </mxCell>
        <mxCell id="SRF5zRr9VvHZBYwOSEQ1-23" style="edgeStyle=orthogonalEdgeStyle;rounded=0;orthogonalLoop=1;jettySize=auto;html=1;entryX=0.5;entryY=0;entryDx=0;entryDy=0;fontSize=12;fontStyle=1" edge="1" parent="1" source="SRF5zRr9VvHZBYwOSEQ1-19" target="SRF5zRr9VvHZBYwOSEQ1-22">
          <mxGeometry relative="1" as="geometry" />
        </mxCell>
        <mxCell id="SRF5zRr9VvHZBYwOSEQ1-25" style="edgeStyle=orthogonalEdgeStyle;rounded=0;orthogonalLoop=1;jettySize=auto;html=1;entryX=0.5;entryY=0;entryDx=0;entryDy=0;fontSize=12;fontStyle=1" edge="1" parent="1" source="SRF5zRr9VvHZBYwOSEQ1-19" target="SRF5zRr9VvHZBYwOSEQ1-24">
          <mxGeometry relative="1" as="geometry" />
        </mxCell>
        <mxCell id="SRF5zRr9VvHZBYwOSEQ1-41" value="No" style="edgeLabel;html=1;align=center;verticalAlign=middle;resizable=0;points=[];fontSize=12;fontStyle=1" vertex="1" connectable="0" parent="SRF5zRr9VvHZBYwOSEQ1-25">
          <mxGeometry x="0.3051" y="-1" relative="1" as="geometry">
            <mxPoint x="1" as="offset" />
          </mxGeometry>
        </mxCell>
        <mxCell id="SRF5zRr9VvHZBYwOSEQ1-19" value="number % 5&amp;nbsp;&lt;br style=&quot;border-color: var(--border-color); font-size: 12px;&quot;&gt;== 0&amp;nbsp;" style="strokeWidth=2;html=1;shape=mxgraph.flowchart.decision;whiteSpace=wrap;fontSize=12;fontStyle=1" vertex="1" parent="1">
          <mxGeometry x="610" y="330" width="100" height="100" as="geometry" />
        </mxCell>
        <mxCell id="SRF5zRr9VvHZBYwOSEQ1-29" style="edgeStyle=orthogonalEdgeStyle;rounded=0;orthogonalLoop=1;jettySize=auto;html=1;endArrow=none;endFill=0;fontSize=12;fontStyle=1" edge="1" parent="1" source="SRF5zRr9VvHZBYwOSEQ1-22">
          <mxGeometry relative="1" as="geometry">
            <mxPoint x="500" y="790" as="targetPoint" />
            <Array as="points">
              <mxPoint x="660" y="790" />
            </Array>
          </mxGeometry>
        </mxCell>
        <mxCell id="SRF5zRr9VvHZBYwOSEQ1-22" value="output =&lt;br style=&quot;font-size: 12px;&quot;&gt;&quot;Buzz&quot;" style="shape=parallelogram;html=1;strokeWidth=2;perimeter=parallelogramPerimeter;whiteSpace=wrap;rounded=1;arcSize=12;size=0.23;fontSize=12;fontStyle=1" vertex="1" parent="1">
          <mxGeometry x="610" y="530" width="100" height="60" as="geometry" />
        </mxCell>
        <mxCell id="SRF5zRr9VvHZBYwOSEQ1-30" style="edgeStyle=orthogonalEdgeStyle;rounded=0;orthogonalLoop=1;jettySize=auto;html=1;endArrow=none;endFill=0;fontSize=12;fontStyle=1" edge="1" parent="1" source="SRF5zRr9VvHZBYwOSEQ1-24">
          <mxGeometry relative="1" as="geometry">
            <mxPoint x="660" y="790" as="targetPoint" />
            <Array as="points">
              <mxPoint x="820" y="790" />
            </Array>
          </mxGeometry>
        </mxCell>
        <mxCell id="SRF5zRr9VvHZBYwOSEQ1-24" value="output =&lt;br style=&quot;font-size: 12px;&quot;&gt;number" style="shape=parallelogram;html=1;strokeWidth=2;perimeter=parallelogramPerimeter;whiteSpace=wrap;rounded=1;arcSize=12;size=0.23;fontSize=12;fontStyle=1" vertex="1" parent="1">
          <mxGeometry x="770" y="530" width="100" height="60" as="geometry" />
        </mxCell>
        <mxCell id="SRF5zRr9VvHZBYwOSEQ1-26" value="end" style="strokeWidth=2;html=1;shape=mxgraph.flowchart.terminator;whiteSpace=wrap;fontSize=12;fontStyle=1" vertex="1" parent="1">
          <mxGeometry x="260" y="860" width="100" height="60" as="geometry" />
        </mxCell>
        <mxCell id="SRF5zRr9VvHZBYwOSEQ1-32" value="" style="endArrow=none;html=1;rounded=0;fontSize=12;fontStyle=1" edge="1" parent="1">
          <mxGeometry width="50" height="50" relative="1" as="geometry">
            <mxPoint x="310" y="790" as="sourcePoint" />
            <mxPoint x="220" y="790" as="targetPoint" />
          </mxGeometry>
        </mxCell>
        <mxCell id="SRF5zRr9VvHZBYwOSEQ1-33" value="Loop" style="endArrow=none;html=1;rounded=0;fontSize=12;fontStyle=1" edge="1" parent="1">
          <mxGeometry width="50" height="50" relative="1" as="geometry">
            <mxPoint x="220" y="790" as="sourcePoint" />
            <mxPoint x="220" y="200" as="targetPoint" />
          </mxGeometry>
        </mxCell>
        <mxCell id="SRF5zRr9VvHZBYwOSEQ1-36" value="" style="endArrow=classic;html=1;rounded=0;entryX=0;entryY=0.5;entryDx=0;entryDy=0;entryPerimeter=0;fontSize=12;fontStyle=1" edge="1" parent="1" target="SRF5zRr9VvHZBYwOSEQ1-4">
          <mxGeometry width="50" height="50" relative="1" as="geometry">
            <mxPoint x="220" y="200" as="sourcePoint" />
            <mxPoint x="270" y="150" as="targetPoint" />
          </mxGeometry>
        </mxCell>
      </root>
    </mxGraphModel>
  </diagram>
</mxfile>
